<svg xmlns="http://www.w3.org/2000/svg" xmlns:xlink="http://www.w3.org/1999/xlink" width="500" zoomAndPan="magnify" viewBox="0 0 375 374.999991" height="500" preserveAspectRatio="xMidYMid meet" version="1.0"><defs><clipPath id="7dbd82d48b"><path d="M 83.269531 74.453125 L 286.515625 74.453125 L 286.515625 277.703125 L 83.269531 277.703125 Z M 83.269531 74.453125 " clip-rule="nonzero"/></clipPath><clipPath id="5364576517"><path d="M 184.894531 74.453125 C 128.769531 74.453125 83.269531 119.953125 83.269531 176.078125 C 83.269531 232.203125 128.769531 277.703125 184.894531 277.703125 C 241.019531 277.703125 286.515625 232.203125 286.515625 176.078125 C 286.515625 119.953125 241.019531 74.453125 184.894531 74.453125 Z M 184.894531 74.453125 " clip-rule="nonzero"/></clipPath><clipPath id="23f90bbad5"><path d="M 206 240 L 242 240 L 242 276.0625 L 206 276.0625 Z M 206 240 " clip-rule="nonzero"/></clipPath><clipPath id="0df069f9f3"><path d="M 135 240 L 171 240 L 171 276.0625 L 135 276.0625 Z M 135 240 " clip-rule="nonzero"/></clipPath><clipPath id="1bcdcacfc3"><path d="M 92.507812 120 L 242 120 L 242 234 L 92.507812 234 Z M 92.507812 120 " clip-rule="nonzero"/></clipPath><clipPath id="7c5453158a"><path d="M 184 105.8125 L 262.757812 105.8125 L 262.757812 184 L 184 184 Z M 184 105.8125 " clip-rule="nonzero"/></clipPath></defs><g clip-path="url(#7dbd82d48b)"><g clip-path="url(#5364576517)"><path fill="#818cf8" d="M 83.269531 74.453125 L 286.515625 74.453125 L 286.515625 277.703125 L 83.269531 277.703125 Z M 83.269531 74.453125 " fill-opacity="1" fill-rule="nonzero"/></g></g><g clip-path="url(#23f90bbad5)"><path fill="#fdfdfd" d="M 241.652344 258.507812 C 241.652344 259.089844 241.621094 259.667969 241.566406 260.246094 C 241.507812 260.828125 241.421875 261.402344 241.308594 261.972656 C 241.195312 262.542969 241.054688 263.105469 240.886719 263.660156 C 240.71875 264.21875 240.523438 264.765625 240.300781 265.300781 C 240.078125 265.839844 239.828125 266.363281 239.554688 266.875 C 239.28125 267.390625 238.980469 267.886719 238.660156 268.371094 C 238.335938 268.855469 237.988281 269.320312 237.621094 269.769531 C 237.25 270.21875 236.863281 270.652344 236.449219 271.0625 C 236.039062 271.472656 235.609375 271.863281 235.160156 272.230469 C 234.710938 272.601562 234.242188 272.945312 233.757812 273.269531 C 233.277344 273.59375 232.777344 273.890625 232.265625 274.164062 C 231.753906 274.441406 231.226562 274.6875 230.691406 274.910156 C 230.152344 275.132812 229.605469 275.328125 229.050781 275.496094 C 228.492188 275.667969 227.929688 275.808594 227.359375 275.921875 C 226.789062 276.035156 226.214844 276.121094 225.636719 276.175781 C 225.058594 276.234375 224.476562 276.261719 223.894531 276.261719 C 223.3125 276.261719 222.734375 276.234375 222.15625 276.175781 C 221.578125 276.121094 221 276.035156 220.429688 275.921875 C 219.859375 275.808594 219.296875 275.667969 218.742188 275.496094 C 218.183594 275.328125 217.636719 275.132812 217.101562 274.910156 C 216.5625 274.6875 216.039062 274.441406 215.527344 274.164062 C 215.011719 273.890625 214.515625 273.59375 214.03125 273.269531 C 213.546875 272.945312 213.082031 272.601562 212.632812 272.230469 C 212.183594 271.863281 211.75 271.472656 211.339844 271.0625 C 210.929688 270.652344 210.539062 270.21875 210.171875 269.769531 C 209.800781 269.320312 209.457031 268.855469 209.132812 268.371094 C 208.808594 267.886719 208.511719 267.390625 208.238281 266.875 C 207.960938 266.363281 207.714844 265.839844 207.492188 265.300781 C 207.269531 264.765625 207.074219 264.21875 206.90625 263.660156 C 206.734375 263.105469 206.59375 262.542969 206.480469 261.972656 C 206.367188 261.402344 206.28125 260.828125 206.226562 260.246094 C 206.167969 259.667969 206.140625 259.089844 206.140625 258.507812 C 206.140625 257.925781 206.167969 257.34375 206.226562 256.765625 C 206.28125 256.1875 206.367188 255.613281 206.480469 255.042969 C 206.59375 254.472656 206.734375 253.910156 206.90625 253.351562 C 207.074219 252.796875 207.269531 252.25 207.492188 251.710938 C 207.714844 251.175781 207.960938 250.648438 208.238281 250.136719 C 208.511719 249.625 208.808594 249.125 209.132812 248.644531 C 209.457031 248.160156 209.800781 247.691406 210.171875 247.242188 C 210.539062 246.792969 210.929688 246.363281 211.339844 245.953125 C 211.75 245.542969 212.183594 245.152344 212.632812 244.78125 C 213.082031 244.414062 213.546875 244.066406 214.03125 243.746094 C 214.515625 243.421875 215.011719 243.121094 215.527344 242.847656 C 216.039062 242.574219 216.5625 242.324219 217.101562 242.105469 C 217.636719 241.882812 218.183594 241.683594 218.742188 241.515625 C 219.296875 241.347656 219.859375 241.207031 220.429688 241.09375 C 221 240.980469 221.578125 240.894531 222.15625 240.835938 C 222.734375 240.78125 223.3125 240.753906 223.894531 240.753906 C 224.476562 240.753906 225.058594 240.78125 225.636719 240.835938 C 226.214844 240.894531 226.789062 240.980469 227.359375 241.09375 C 227.929688 241.207031 228.492188 241.347656 229.050781 241.515625 C 229.605469 241.683594 230.152344 241.882812 230.691406 242.105469 C 231.226562 242.324219 231.753906 242.574219 232.265625 242.847656 C 232.777344 243.121094 233.277344 243.421875 233.757812 243.746094 C 234.242188 244.066406 234.710938 244.414062 235.160156 244.78125 C 235.609375 245.152344 236.039062 245.542969 236.449219 245.953125 C 236.863281 246.363281 237.25 246.792969 237.621094 247.242188 C 237.988281 247.691406 238.335938 248.160156 238.660156 248.644531 C 238.980469 249.125 239.28125 249.625 239.554688 250.136719 C 239.828125 250.648438 240.078125 251.175781 240.300781 251.710938 C 240.523438 252.25 240.71875 252.796875 240.886719 253.351562 C 241.054688 253.910156 241.195312 254.472656 241.308594 255.042969 C 241.421875 255.613281 241.507812 256.1875 241.566406 256.765625 C 241.621094 257.34375 241.652344 257.925781 241.652344 258.507812 Z M 241.652344 258.507812 " fill-opacity="1" fill-rule="nonzero"/></g><g clip-path="url(#0df069f9f3)"><path fill="#fdfdfd" d="M 170.628906 258.507812 C 170.628906 259.089844 170.601562 259.667969 170.542969 260.246094 C 170.488281 260.828125 170.402344 261.402344 170.289062 261.972656 C 170.175781 262.542969 170.035156 263.105469 169.867188 263.660156 C 169.695312 264.21875 169.5 264.765625 169.277344 265.300781 C 169.054688 265.839844 168.808594 266.363281 168.535156 266.875 C 168.257812 267.390625 167.960938 267.886719 167.636719 268.371094 C 167.316406 268.855469 166.96875 269.320312 166.601562 269.769531 C 166.230469 270.21875 165.839844 270.652344 165.429688 271.0625 C 165.019531 271.472656 164.589844 271.863281 164.140625 272.230469 C 163.6875 272.601562 163.222656 272.945312 162.738281 273.269531 C 162.253906 273.59375 161.757812 273.890625 161.246094 274.164062 C 160.730469 274.441406 160.207031 274.6875 159.667969 274.910156 C 159.132812 275.132812 158.585938 275.328125 158.027344 275.496094 C 157.472656 275.667969 156.910156 275.808594 156.339844 275.921875 C 155.769531 276.035156 155.195312 276.121094 154.617188 276.175781 C 154.035156 276.234375 153.457031 276.261719 152.875 276.261719 C 152.292969 276.261719 151.714844 276.234375 151.132812 276.175781 C 150.554688 276.121094 149.980469 276.035156 149.410156 275.921875 C 148.839844 275.808594 148.277344 275.667969 147.722656 275.496094 C 147.164062 275.328125 146.617188 275.132812 146.082031 274.910156 C 145.542969 274.6875 145.019531 274.441406 144.503906 274.164062 C 143.992188 273.890625 143.496094 273.59375 143.011719 273.269531 C 142.527344 272.945312 142.0625 272.601562 141.609375 272.230469 C 141.160156 271.863281 140.730469 271.472656 140.320312 271.0625 C 139.910156 270.652344 139.519531 270.21875 139.148438 269.769531 C 138.78125 269.320312 138.433594 268.855469 138.113281 268.371094 C 137.789062 267.886719 137.492188 267.390625 137.214844 266.875 C 136.941406 266.363281 136.695312 265.839844 136.472656 265.300781 C 136.25 264.765625 136.054688 264.21875 135.882812 263.660156 C 135.714844 263.105469 135.574219 262.542969 135.460938 261.972656 C 135.347656 261.402344 135.261719 260.828125 135.207031 260.246094 C 135.148438 259.667969 135.121094 259.089844 135.121094 258.507812 C 135.121094 257.925781 135.148438 257.34375 135.207031 256.765625 C 135.261719 256.1875 135.347656 255.613281 135.460938 255.042969 C 135.574219 254.472656 135.714844 253.910156 135.882812 253.351562 C 136.054688 252.796875 136.25 252.25 136.472656 251.710938 C 136.695312 251.175781 136.941406 250.648438 137.214844 250.136719 C 137.492188 249.625 137.789062 249.125 138.113281 248.644531 C 138.433594 248.160156 138.78125 247.691406 139.148438 247.242188 C 139.519531 246.792969 139.910156 246.363281 140.320312 245.953125 C 140.730469 245.542969 141.160156 245.152344 141.609375 244.78125 C 142.0625 244.414062 142.527344 244.066406 143.011719 243.746094 C 143.496094 243.421875 143.992188 243.121094 144.503906 242.847656 C 145.019531 242.574219 145.542969 242.324219 146.082031 242.105469 C 146.617188 241.882812 147.164062 241.683594 147.722656 241.515625 C 148.277344 241.347656 148.839844 241.207031 149.410156 241.09375 C 149.980469 240.980469 150.554688 240.894531 151.132812 240.835938 C 151.714844 240.78125 152.292969 240.753906 152.875 240.753906 C 153.457031 240.753906 154.035156 240.78125 154.617188 240.835938 C 155.195312 240.894531 155.769531 240.980469 156.339844 241.09375 C 156.910156 241.207031 157.472656 241.347656 158.027344 241.515625 C 158.585938 241.683594 159.132812 241.882812 159.667969 242.105469 C 160.207031 242.324219 160.730469 242.574219 161.246094 242.847656 C 161.757812 243.121094 162.253906 243.421875 162.738281 243.746094 C 163.222656 244.066406 163.6875 244.414062 164.140625 244.78125 C 164.589844 245.152344 165.019531 245.542969 165.429688 245.953125 C 165.839844 246.363281 166.230469 246.792969 166.601562 247.242188 C 166.96875 247.691406 167.316406 248.160156 167.636719 248.644531 C 167.960938 249.125 168.257812 249.625 168.535156 250.136719 C 168.808594 250.648438 169.054688 251.175781 169.277344 251.710938 C 169.5 252.25 169.695312 252.796875 169.867188 253.351562 C 170.035156 253.910156 170.175781 254.472656 170.289062 255.042969 C 170.402344 255.613281 170.488281 256.1875 170.542969 256.765625 C 170.601562 257.34375 170.628906 257.925781 170.628906 258.507812 Z M 170.628906 258.507812 " fill-opacity="1" fill-rule="nonzero"/></g><g clip-path="url(#1bcdcacfc3)"><path fill="#fdfdfd" d="M 238.097656 233.648438 L 156.136719 233.648438 C 144.324219 233.648438 134.074219 225.25 131.761719 213.671875 L 114.453125 127.121094 L 96.058594 127.121094 C 94.097656 127.121094 92.507812 125.527344 92.507812 123.566406 C 92.507812 121.609375 94.097656 120.015625 96.058594 120.015625 L 117.363281 120.015625 C 119.054688 120.015625 120.511719 121.210938 120.84375 122.871094 L 138.726562 212.273438 C 140.382812 220.546875 147.699219 226.546875 156.136719 226.546875 L 238.097656 226.546875 C 240.058594 226.546875 241.652344 228.140625 241.652344 230.097656 C 241.652344 232.058594 240.058594 233.648438 238.097656 233.648438 Z M 238.097656 233.648438 " fill-opacity="1" fill-rule="nonzero"/></g><path fill="#fdfdfd" d="M 248.554688 185.917969 C 247.496094 185.292969 246.195312 185.25 245.109375 185.824219 C 238.46875 189.285156 231.332031 191.039062 223.894531 191.039062 C 198.441406 191.039062 177.761719 171.792969 177.796875 145.753906 C 177.796875 145.707031 177.832031 145.023438 177.839844 144.980469 C 177.867188 144 177.492188 143.054688 176.800781 142.367188 C 176.105469 141.671875 175.148438 141.300781 174.179688 141.324219 L 124.359375 141.324219 C 123.324219 141.351562 122.351562 141.84375 121.703125 142.652344 C 121.050781 143.453125 120.78125 144.503906 120.980469 145.527344 L 131.632812 202.34375 C 131.945312 204.027344 133.410156 205.242188 135.121094 205.242188 L 232.660156 205.242188 C 241.59375 205.242188 249.171875 198.558594 250.273438 189.6875 C 250.292969 189.511719 250.292969 189.0625 250.292969 188.886719 C 250.265625 187.664062 249.605469 186.542969 248.554688 185.917969 Z M 248.554688 185.917969 " fill-opacity="1" fill-rule="nonzero"/><g clip-path="url(#7c5453158a)"><path fill="#fdfdfd" d="M 223.894531 105.8125 C 202.355469 105.8125 184.835938 123.332031 184.835938 144.875 C 184.835938 166.414062 202.355469 183.9375 223.894531 183.9375 C 245.4375 183.9375 262.957031 166.414062 262.957031 144.875 C 262.957031 123.332031 245.4375 105.8125 223.894531 105.8125 Z M 247.714844 133.183594 L 219.308594 161.59375 C 218.613281 162.28125 217.703125 162.628906 216.792969 162.628906 C 215.882812 162.628906 214.976562 162.28125 214.277344 161.59375 L 200.074219 147.386719 C 198.691406 146.003906 198.691406 143.753906 200.074219 142.367188 C 201.460938 140.984375 203.710938 140.984375 205.097656 142.367188 L 216.792969 154.058594 L 242.6875 128.164062 C 244.074219 126.777344 246.324219 126.777344 247.707031 128.164062 C 249.09375 129.546875 249.101562 131.792969 247.714844 133.183594 Z M 247.714844 133.183594 " fill-opacity="1" fill-rule="nonzero"/></g></svg>